# xmcd
#
# Track frame offsets:
#	150
#	17066
#	38718
#	57645
#	71245
#	89880
#	108116
#	132438
#	144937
#	155237
#	172696
#	194808
#
# Disc length: 2836 seconds
#
# Revision: 0
# Processed by: cddbd v1.5.2PL0 Copyright (c) Steve Scherf et al.
# Submitted via: audiograbber 1.83.01
#
DISCID=b20b120c
DTITLE=Mariotti Brothers - Real Life
DYEAR=1900
DGENRE=Country
TTITLE0=This Is Love
TTITLE1=Real Life
TTITLE2=Yellow Creek
TTITLE3=You Know How
TTITLE4=Wild Wild Woman
TTITLE5=Lonely World
TTITLE6=Lonesome Driving Man
TTITLE7=Hillbilly Heaven
TTITLE8=Cajun Moon
TTITLE9=I Walked In
TTITLE10=A Long Time Ago
TTITLE11=Half Tempo Country
EXTD=
EXTT0=
EXTT1=
EXTT2=
EXTT3=
EXTT4=
EXTT5=
EXTT6=
EXTT7=
EXTT8=
EXTT9=
EXTT10=
EXTT11=
PLAYORDER=
